<?xml version="1.0" encoding="UTF-8" standalone="yes"?>
<svg version="1.2" width="142.918" height="142.918" viewBox="0 0 142.918 142.918" preserveAspectRatio="xMidYMid" baseProfile="tiny-ps" xmlns="http://www.w3.org/2000/svg">
  <title>bimi-svg-tiny-12-ps</title>
  <defs id="defs49"/>
  <g fill="#febf00" id="g1" transform="translate(-59.791,-227.5)">
    <path d="m 176.35,332.25 c -5.6,-5.3 -13.75,-9.95 -22.35,-12.75 -5.9,-1.9 -9.5,-2.5 -15.1,-2.5 -4.05,0 -4.4,-0.1 -4.4,-1 0,-0.65 0.35,-1 1,-1 0.55,0 1,-0.2 1,-0.5 0,-0.25 0.3,-0.5 0.7,-0.5 1,0 6.7,-4.5 9.55,-7.55 1.4,-1.5 4.6,-5.4 7.1,-8.7 7,-9.3 11.8,-13.45 19.75,-17.25 5.15,-2.45 10.85,-3.95 16.55,-4.35 l 4.35,-0.3 v 9.35 c 0,15.6 -2,25.7 -7.25,36.55 -2.6,5.3 -7.2,13.25 -7.65,13.25 -0.2,-0.05 -1.65,-1.25 -3.25,-2.75 z" id="path1"/>
  </g>
  <g fill="#fd8b24" id="g3" transform="translate(-59.791,-227.5)">
    <path d="m 136,315.5 c 0,-0.85 0.3,-1 2.4,-0.95 2.2,0.05 2.25,0.1 1,0.6 -0.8,0.3 -1.4,0.7 -1.4,0.95 0,0.2 -0.45,0.4 -1,0.4 -0.65,0 -1,-0.35 -1,-1 z" id="path2"/>
    <path d="m 68.1,253.9 0.15,-26.15 H 90.9 c 21.85,0 22.7,0.05 23.4,0.95 0.6,0.85 0.7,5.2 0.7,26.15 V 280 H 91.5 68 Z" id="path3"/>
  </g>
  <g fill="#f75735" id="g4" transform="translate(-59.791,-227.5)">
    <path d="m 125.1,293.7 0.2,-23.95 1.35,-4.5 C 131.6,249 142,237.7 158,231.15 c 7.1,-2.9 12.3,-3.65 25.25,-3.65 h 11.25 v 24.95 24.9 l -3.75,0.35 c -7.4,0.65 -16.1,3.75 -22.15,7.9 -4,2.7 -8.55,7.4 -13.25,13.65 -5.35,7.05 -8.55,10.6 -12.35,13.5 -4.3,3.3 -6.5,4.1 -12.65,4.5 l -5.45,0.35 z" id="path4"/>
  </g>
  <g fill="#00b3be" id="g5" transform="translate(-59.791,-227.5)">
    <path d="M 89.85,360.2 C 86.1,357.45 79.55,350.6 77.2,347 72.45,339.6 70.35,333.8 69,324.55 c -0.85,-5.85 -1,-9.5 -1,-26.4 V 278.5 H 91.5 115 v 12.15 c 0,13.15 0.4,27.85 0.8,31.2 0.35,2.7 1.75,4.5 4.25,5.2 1.05,0.35 1.95,0.85 1.95,1.2 0,0.6 -9.6,10.15 -22.7,22.5 -5.65,5.35 -8.15,8.05 -7.6,8.15 0.5,0.1 0.8,0.7 0.8,1.65 0,0.8 -0.05,1.45 -0.1,1.45 -0.1,0 -1.25,-0.8 -2.55,-1.8 z" id="path5"/>
  </g>
  <path d="m 54.709,142.65 c -9.25,-1.4 -18.75,-5.25 -24.25,-9.85 l -2,-1.7 4.75,-4.65 c 2.6,-2.6 9.9,-9.65 16.2,-15.7 l 11.45,-11 9.05,-0.2 c 10.25,-0.2 17.85,0.8 25.4,3.3 7.65,2.5 20.8,10.05 20,11.45 -0.2,0.4 -2.7,3.2 -5.55,6.2 -7.35,7.9 -14.65,13.5 -21.75,16.75 -4.8,2.2 -12.7,4.55 -17.45,5.2 -3.7,0.5 -13.1,0.65 -15.85,0.2 z" id="path20" fill="#0083d3"/>
</svg>
